<svg viewBox="0 0 300 230" xmlns="http://www.w3.org/2000/svg">
  <!-- formation: 3 white birds + 1 red "attack" bird with ghost trail -->
  <g transform="translate(97.5 49) rotate(0 52.5 21)" opacity="1">
    <g transform="scale(1.05)">
      <path fill="#f4f6fa" d="M4 24 C16 8 30 10 40 21 C44 25 46 25 50 19 C54 25 56 25 60 21 C70 10 84 8 96 24 C84 14 72 16 62 24 C56 30 54 30 50 24 C46 30 44 30 38 24 C28 16 16 14 4 24 Z"/>
    </g>
  </g>
  <g transform="translate(20 110) rotate(0 50 20)" opacity="1">
    <g transform="scale(1)">
      <path fill="#f4f6fa" d="M4 24 C16 8 30 10 40 21 C44 25 46 25 50 19 C54 25 56 25 60 21 C70 10 84 8 96 24 C84 14 72 16 62 24 C56 30 54 30 50 24 C46 30 44 30 38 24 C28 16 16 14 4 24 Z"/>
    </g>
  </g>
  <g transform="translate(185 115) rotate(0 50 20)" opacity="0.12">
    <g transform="scale(1)">
      <path fill="#f4f6fa" d="M4 24 C16 8 30 10 40 21 C44 25 46 25 50 19 C54 25 56 25 60 21 C70 10 84 8 96 24 C84 14 72 16 62 24 C56 30 54 30 50 24 C46 30 44 30 38 24 C28 16 16 14 4 24 Z"/>
    </g>
  </g>
  <g transform="translate(185 129) rotate(35 50 20)" opacity="1">
    <g transform="scale(1)">
      <path fill="#e23b3b" d="M4 24 C16 8 30 10 40 21 C44 25 46 25 50 19 C54 25 56 25 60 21 C70 10 84 8 96 24 C84 14 72 16 62 24 C56 30 54 30 50 24 C46 30 44 30 38 24 C28 16 16 14 4 24 Z"/>
    </g>
  </g>
  <g transform="translate(100 165) rotate(0 50 20)" opacity="1">
    <g transform="scale(1)">
      <path fill="#f4f6fa" d="M4 24 C16 8 30 10 40 21 C44 25 46 25 50 19 C54 25 56 25 60 21 C70 10 84 8 96 24 C84 14 72 16 62 24 C56 30 54 30 50 24 C46 30 44 30 38 24 C28 16 16 14 4 24 Z"/>
    </g>
  </g>
</svg>
